{"title":"[YamiFansub] Sword Art Online II - 01 [1080p]","uid":10632006,"size":568192051,"categoryP":"video","categoryS":"hd___tv_shows","magnet":"?xt=urn:btih:55a0a0e5737b20dc60f915e5eb5437f989db7c16&amp;dn=%5BYamiFansub%5D+Sword+Art+Online+II+-+01+%5B1080p%5D&amp;tr=udp%3A%2F%2Ftracker.openbittorrent.com%3A80&amp;tr=udp%3A%2F%2Fopen.demonii.com%3A1337&amp;tr=udp%3A%2F%2Ftracker.coppersurfer.tk%3A6969&amp;tr=udp%3A%2F%2Fexodus.desync.com%3A6969","seeders":1,"leechers":0,"uploader":null,"files":-1,"time":1406335865,"description":"Traducteur : Shuuta\nChecker : Akatsukii\nEncodeur : Akatsukii\nUpload : Anonymous\n\n\n\n[General]\n\nComplete name : [YamiFansub] Sword Art Online II - 01 [1080p].mp4 \nFormat : MPEG-4 \nFormat profile : Base Media \nCodec ID : isom \nFile size : 542 MiB \nDuration : 23mn 40s \nOverall bit rate mode : Variable \nOverall bit rate : 3 201 Kbps \nEncoded date : UTC 2014-07-25 21:09:54 \nTagged date : UTC 2014-07-25 21:09:54 \n\n[Video] \n\nID : 1\nFormat : AVC \nFormat/Info : Advanced Video Codec \nFormat profile : &lt;a class=&quot;__cf_email__&quot; href=&quot;/cdn-cgi/l/email-protection&quot; data-cfemail=&quot;4d05242a250d0179637d&quot;&gt;[email&amp;#160;protected]&lt;/a&gt;&lt;script cf-hash='f9e31' type=&quot;text/javascript&quot;&gt;\n/* &lt;![CDATA[ */!function(){try{var t=&quot;currentScript&quot;in document?document.currentScript:function(){for(var t=document.getElementsByTagName(&quot;script&quot;),e=t.length;e--;)if(t[e].getAttribute(&quot;cf-hash&quot;))return t[e]}();if(t&amp;&amp;t.previousSibling){var e,r,n,i,c=t.previousSibling,a=c.getAttribute(&quot;data-cfemail&quot;);if(a){for(e=&quot;&quot;,r=parseInt(a.substr(0,2),16),n=2;a.length-n;n+=2)i=parseInt(a.substr(n,2),16)^r,e+=String.fromCharCode(i);e=document.createTextNode(e),c.parentNode.replaceChild(e,c)}}}catch(u){}}();/* ]]&gt; */&lt;/script&gt; \nFormat settings, CABAC : Yes \nFormat settings, ReFrames : 4 frames \nCodec ID : avc1 \nCodec ID/Info : Advanced Video Coding \nDuration : 23mn 40s \nBit rate : 3 072 Kbps \nMaximum bit rate : 11.0 Mbps \nWidth : 1 920 pixels \nHeight : 1 080 pixels \nDisplay aspect ratio : 16:9 \nFrame rate mode : Constant \nFrame rate : 23.976 fps \nColor space : YUV \nChroma subsampling : 4:2:0 \nBit depth : 8 bits \nScan type : Progressive \nBits/(Pixel*Frame) : 0.062 \nStream size : 520 MiB (96%) \nWriting library : x264 core 120 r2120 0c7dab9 \nEncoding settings : cabac=1 / ref=4 / deblock=1:1:1 / analyse=0x3:0x113 / me=umh / subme=8 / psy=1 / psy_rd=0.40:0.00 / mixed_ref=1 / me_range=16 / chroma_me=1 / trellis=1 / 8x8dct=1 / cqm=0 / deadzone=21,11 / fast_pskip=1 / chroma_qp_offset=-2 / threads=8 / sliced_threads=0 / nr=0 / decimate=1 / interlaced=0 / bluray_compat=0 / constrained_intra=0 / bframes=3 / b_pyramid=2 / b_adapt=2 / b_bias=0 / direct=3 / weightb=1 / open_gop=0 / weightp=2 / keyint=250 / keyint_min=23 / scenecut=40 / intra_refresh=0 / rc_lookahead=50 / rc=2pass / mbtree=1 / bitrate=3072 / ratetol=1.0 / qcomp=0.60 / qpmin=0 / qpmax=69 / qpstep=4 / cplxblur=20.0 / qblur=0.5 / vbv_maxrate=6144 / vbv_bufsize=15360 / nal_hrd=none / ip_ratio=1.40 / aq=1:0.60\n\n[Audio] \n\nID : 2 \nFormat : AAC \nFormat/Info : Advanced Audio Codec \nFormat profile : LC \nCodec ID : 40 \nDuration : 23mn 40s \nBit rate mode : Variable \nBit rate : 128 Kbps \nMaximum bit rate : 138 Kbps \nChannel(s) : 2 channels \nChannel positions : Front: L R \nSampling rate : 44.1 KHz \nCompression mode : Lossy \nStream size : 21.7 MiB (4%) \nLanguage : Japanese ","torrent":{"xt":"urn:btih:55a0a0e5737b20dc60f915e5eb5437f989db7c16","amp;dn":"%5BYamiFansub%5D+Sword+Art+Online+II+-+01+%5B1080p%5D","amp;tr":["udp%3A%2F%2Ftracker.openbittorrent.com%3A80","udp%3A%2F%2Fopen.demonii.com%3A1337","udp%3A%2F%2Ftracker.coppersurfer.tk%3A6969","udp%3A%2F%2Fexodus.desync.com%3A6969"],"infoHash":"55a0a0e5737b20dc60f915e5eb5437f989db7c16","infoHashBuffer":{"type":"Buffer","data":[85,160,160,229,115,123,32,220,96,249,21,229,235,84,55,249,137,219,124,22]},"announce":[],"urlList":[]}}